<?xml version="1.0" encoding="UTF-8"?>
<svg xmlns="http://www.w3.org/2000/svg" width="1024" height="1024" viewBox="0 0 1024 1024" role="img" aria-label="Pi Manager">
  <defs>
    <linearGradient id="disc" x1="0%" y1="0%" x2="100%" y2="100%">
      <stop offset="0%" stop-color="#388bfd"/>
      <stop offset="100%" stop-color="#1f6feb"/>
    </linearGradient>
    <linearGradient id="tile" x1="0%" y1="0%" x2="0%" y2="100%">
      <stop offset="0%" stop-color="#1a2230"/>
      <stop offset="100%" stop-color="#121821"/>
    </linearGradient>
    <filter id="soft" x="-20%" y="-20%" width="140%" height="140%">
      <feDropShadow dx="0" dy="12" stdDeviation="18" flood-color="#000" flood-opacity="0.35"/>
    </filter>
  </defs>
  <rect width="1024" height="1024" rx="220" fill="url(#tile)" filter="url(#soft)"/>
  <circle cx="512" cy="500" r="290" fill="none" stroke="#1f6feb" stroke-width="18" opacity="0.9"/>
  <path d="M220 500 A292 292 0 0 1 780 380" fill="none" stroke="#388bfd" stroke-width="22" stroke-linecap="round"/>
  <path d="M300 700 A292 292 0 0 1 220 500" fill="none" stroke="#39c5cf" stroke-width="18" stroke-linecap="round"/>
  <path d="M700 740 A292 292 0 0 1 820 560" fill="none" stroke="#2ea043" stroke-width="14" stroke-linecap="round"/>
  <circle cx="512" cy="500" r="210" fill="url(#disc)"/>
  <text x="512" y="560" text-anchor="middle" font-family="Segoe UI, Arial, sans-serif" font-size="320" font-weight="700" fill="#ffffff">π</text>
  <!-- switch badge -->
  <rect x="680" y="780" width="180" height="90" rx="45" fill="#1f6feb"/>
  <circle cx="815" cy="825" r="32" fill="#ffffff"/>
</svg>
