<svg xmlns="http://www.w3.org/2000/svg" width="24" height="24" viewBox="0 0 24 24" fill="none" stroke="#7C8799" stroke-width="1.8" stroke-linecap="round" stroke-linejoin="round"><circle cx="12" cy="12" r="3"/><path d="M19 13.5v-3l-2-.7a7 7 0 0 0-.7-1.6l.9-2-2.1-2.1-2 .9a7 7 0 0 0-1.6-.7L10.5 2h-3l-.7 2a7 7 0 0 0-1.6.7l-2-.9L1.1 6l.9 2a7 7 0 0 0-.7 1.6L0 10.5v3l2 .7a7 7 0 0 0 .7 1.6l-.9 2 2.1 2.1 2-.9a7 7 0 0 0 1.6.7l.7 2h3l.7-2a7 7 0 0 0 1.6-.7l2 .9 2.1-2.1-.9-2a7 7 0 0 0 .7-1.6Z" transform="translate(2) scale(.83)"/></svg>
